<svg width="1408" height="540" viewBox="0 0 1408 540" fill="none" xmlns="http://www.w3.org/2000/svg">
<path d="M0 0H1308V540H0V0Z" fill="#009065"/>
<mask id="mask0_1_23" style="mask-type:alpha" maskUnits="userSpaceOnUse" x="838" y="0" width="470" height="540">
<path d="M838 0H1308V540H838V0Z" fill="#006547"/>
</mask>
<g mask="url(#mask0_1_23)">
<rect x="1440.14" y="-205" width="141" height="633.764" transform="rotate(45 1440.14 -205)" fill="url(#paint0_linear_1_23)"/>
<rect x="1429.39" y="88" width="141" height="779.783" transform="rotate(45 1429.39 88)" fill="url(#paint1_linear_1_23)"/>
</g>
<mask id="mask1_1_23" style="mask-type:alpha" maskUnits="userSpaceOnUse" x="0" y="0" width="470" height="540">
<path d="M470 0H-1.27554e-05V540H470V0Z" fill="#006547"/>
</mask>
<g mask="url(#mask1_1_23)">
<rect width="141" height="633.764" transform="matrix(-0.707107 0.707107 0.707107 0.707107 -132.138 -205)" fill="url(#paint2_linear_1_23)"/>
<rect width="141" height="779.783" transform="matrix(-0.707107 0.707107 0.707107 0.707107 -121.389 88)" fill="url(#paint3_linear_1_23)"/>
</g>
<defs>
<linearGradient id="paint0_linear_1_23" x1="1510.64" y1="-205" x2="1510.64" y2="428.764" gradientUnits="userSpaceOnUse">
<stop stop-color="#0B0B0B" stop-opacity="0.23"/>
<stop offset="1" stop-opacity="0"/>
</linearGradient>
<linearGradient id="paint1_linear_1_23" x1="1499.89" y1="88" x2="1499.89" y2="867.783" gradientUnits="userSpaceOnUse">
<stop stop-color="#0B0B0B" stop-opacity="0.23"/>
<stop offset="1" stop-opacity="0"/>
</linearGradient>
<linearGradient id="paint2_linear_1_23" x1="70.5" y1="0" x2="70.5" y2="633.764" gradientUnits="userSpaceOnUse">
<stop stop-color="#0B0B0B" stop-opacity="0.23"/>
<stop offset="1" stop-opacity="0"/>
</linearGradient>
<linearGradient id="paint3_linear_1_23" x1="70.5" y1="0" x2="70.5" y2="779.783" gradientUnits="userSpaceOnUse">
<stop stop-color="#0B0B0B" stop-opacity="0.23"/>
<stop offset="1" stop-opacity="0"/>
</linearGradient>
</defs>
</svg>
